<svg width="1773" height="1429" viewBox="0 0 1773 1429" fill="none" xmlns="http://www.w3.org/2000/svg">
<rect y="707.107" width="1000" height="270" rx="30" transform="rotate(-45 0 707.107)" fill="#3B65A1"/>
<rect x="707.107" y="1414.21" width="1000" height="270" rx="30" transform="rotate(-135 707.107 1414.21)" fill="#3B65A1"/>
<rect x="530.33" y="1237.44" width="1000" height="270" rx="30" transform="rotate(-45 530.33 1237.44)" fill="#3B65A1"/>
<rect x="167" y="707.68" width="1000" height="270" rx="30" transform="rotate(-45 167 707.68)" fill="#4E91C2"/>
<rect x="874.107" y="1414.79" width="1000" height="270" rx="30" transform="rotate(-135 874.107 1414.79)" fill="#4E91C2"/>
<rect x="697.33" y="1238.01" width="1000" height="270" rx="30" transform="rotate(-45 697.33 1238.01)" fill="#4E91C2"/>
<rect x="344" y="707.68" width="1000" height="270" rx="30" transform="rotate(-45 344 707.68)" fill="#4FC0E3"/>
<rect x="1051.11" y="1414.79" width="1000" height="270" rx="30" transform="rotate(-135 1051.11 1414.79)" fill="#4FC0E3"/>
<rect x="874.33" y="1238.01" width="1000" height="270" rx="30" transform="rotate(-45 874.33 1238.01)" fill="#4FC0E3"/>
</svg>
